<?xml version="1.0" standalone="no"?><!DOCTYPE svg PUBLIC "-//W3C//DTD SVG 1.1//EN" "http://www.w3.org/Graphics/SVG/1.1/DTD/svg11.dtd"><svg class="icon" width="16px" height="16.00px" viewBox="0 0 1024 1024" version="1.1" xmlns="http://www.w3.org/2000/svg"><path d="M0 512c0 282.752 229.248 512 512 512s512-229.248 512-512S794.752 0 512 0 0 229.248 0 512z" fill="#F9565E" /><path d="M699.136 441.685v314.667H355.883V441.685h-28.587c-17.195 0-28.63-11.434-28.63-28.586s11.435-28.587 28.587-28.587h400.512c17.152 0 28.587 11.435 28.587 28.587s-11.435 28.586-28.587 28.586H699.18z m-57.173 0H413.056v257.451h228.821v-257.45z m-200.32-143.018H613.29c17.152 0 28.586 11.434 28.586 28.586 0 17.195-11.434 28.587-28.586 28.587H441.643c-17.152 0-28.587-11.392-28.587-28.587 0-17.152 11.435-28.586 28.587-28.586z" fill="#FFFFFF" /></svg>