<?xml version="1.0" standalone="no"?><!DOCTYPE svg PUBLIC "-//W3C//DTD SVG 1.1//EN" "http://www.w3.org/Graphics/SVG/1.1/DTD/svg11.dtd"><svg class="icon" width="16px" height="16.00px" viewBox="0 0 1024 1024" version="1.1" xmlns="http://www.w3.org/2000/svg"><path d="M512 512m-460.8 0a460.8 460.8 0 1 0 921.6 0 460.8 460.8 0 1 0-921.6 0Z" fill="#9197A3" opacity=".2" /><path d="M512 455.68l143.36-143.36c15.36-15.36 40.96-15.36 56.32 0 15.36 15.36 15.36 40.96 0 56.32L568.32 512l143.36 143.36c15.36 15.36 15.36 40.96 0 56.32-15.36 15.36-40.96 15.36-56.32 0L512 568.32l-143.36 143.36c-15.36 15.36-40.96 15.36-56.32 0-15.36-15.36-15.36-40.96 0-56.32L455.68 512 312.32 368.64c-15.36-15.36-15.36-40.96 0-56.32s40.96-15.36 56.32 0L512 455.68z" fill="#9197A3" /></svg>