<?xml version="1.0" standalone="no"?><!DOCTYPE svg PUBLIC "-//W3C//DTD SVG 1.1//EN" "http://www.w3.org/Graphics/SVG/1.1/DTD/svg11.dtd"><svg class="icon" width="16px" height="16.00px" viewBox="0 0 1024 1024" version="1.1" xmlns="http://www.w3.org/2000/svg"><path d="M767.616 267.605333c-18.090667-3.114667-34.133333-15.061333-44.202667-32.682666C672.384 145.066667 582.570667 85.333333 479.957333 85.333333 340.608 85.333333 224.682667 195.413333 198.058667 341.333333c-4.394667 24.149333-18.517333 44.458667-38.229334 53.76C65.621333 439.552 0 538.88 0 654.165333 0 805.674667 113.237333 930.133333 256 938.666667h480c158.976 0 288-151.338667 288-337.792-0.085333-168.576-111.146667-307.84-256.384-333.226667z" fill="#02B428" /><path d="M732.458667 442.453333a39.509333 39.509333 0 0 0-54.442667-8.448l-212.565333 202.752a19.370667 19.370667 0 0 1-27.008-3.882666L368.938667 540.586667H367.786667a37.376 37.376 0 0 0-53.248-7.253334 37.888 37.888 0 0 0-8.490667 53.205334l81.92 108.074666a77.482667 77.482667 0 0 0 107.989333 15.36l228.096-214.314666h1.194667a38.912 38.912 0 0 0 7.253333-53.248z" fill="#FFFFFF" /></svg>