<?xml version="1.0" standalone="no"?><!DOCTYPE svg PUBLIC "-//W3C//DTD SVG 1.1//EN" "http://www.w3.org/Graphics/SVG/1.1/DTD/svg11.dtd"><svg class="icon" width="16px" height="16.00px" viewBox="0 0 1024 1024" version="1.1" xmlns="http://www.w3.org/2000/svg"><path fill="#d81e06" d="M512 104.448C737.28 104.448 919.552 286.72 919.552 512S737.28 919.552 512 919.552 104.448 737.28 104.448 512 286.72 104.448 512 104.448m0-79.872C241.664 24.576 24.576 241.664 24.576 512S241.664 999.424 512 999.424 999.424 782.336 999.424 512 782.336 24.576 512 24.576z"  /><path fill="#d81e06" d="M512 186.368c-30.72 0-53.248 24.576-53.248 53.248v378.88c0 30.72 24.576 53.248 53.248 53.248 30.72 0 53.248-24.576 53.248-53.248V241.664c0-30.72-22.528-55.296-53.248-55.296z m0 542.72c-30.72 0-53.248 24.576-53.248 53.248 0 30.72 24.576 53.248 53.248 53.248 30.72 0 53.248-24.576 53.248-53.248 0-28.672-22.528-53.248-53.248-53.248z"  /></svg>